HIERARCHY
ROOT HipCenter
{
    OFFSET 0.0 0.0 -0.0
    CHANNELS 6 Xposition Yposition Zposition Zrotation Xrotation Yrotation
    JOINT Spine
    {
        OFFSET 0.0 11.62181282043457 0.0
        CHANNELS 3 Zrotation Xrotation Yrotation
        JOINT ShoulderCenter
        {
            OFFSET 0.0 32.08944320678711 0.0
            CHANNELS 3 Zrotation Xrotation Yrotation
            JOINT LeftShoulder
            {
                OFFSET 20.294355392456055 0.0 0.0
                CHANNELS 3 Zrotation Xrotation Yrotation
                JOINT LeftElbow
                {
                    OFFSET 27.916940689086914 0.0 0.0
                    CHANNELS 3 Zrotation Xrotation Yrotation
                    JOINT LeftWrist
                    {
                        OFFSET 28.447086334228516 0.0 0.0
                        CHANNELS 3 Zrotation Xrotation Yrotation
                        JOINT LeftHand
                        {
                            OFFSET 3.9296083450317383 0.0 0.0
                            CHANNELS 3 Zrotation Xrotation Yrotation
                            End Site
                            {
                                OFFSET 1.5718432664871216 0.0 0.0
                            }
                        }
                    }
                }
            }
            JOINT RightShoulder
            {
                OFFSET -20.294355392456055 0.0 0.0
                CHANNELS 3 Zrotation Xrotation Yrotation
                JOINT RightElbow
                {
                    OFFSET -27.916940689086914 0.0 0.0
                    CHANNELS 3 Zrotation Xrotation Yrotation
                    JOINT RightWrist
                    {
                        OFFSET -28.447086334228516 0.0 0.0
                        CHANNELS 3 Zrotation Xrotation Yrotation
                        JOINT RightHand
                        {
                            OFFSET -3.9296083450317383 0.0 0.0
                            CHANNELS 3 Zrotation Xrotation Yrotation
                            End Site
                            {
                                OFFSET -1.5718432664871216 0.0 0.0
                            }
                        }
                    }
                }
            }
            End Site
            {
                OFFSET 0.0 12.835777282714844 0.0
            }
        }
    }
    JOINT LeftHip
    {
        OFFSET 14.179494857788086 0.0 0.0
        CHANNELS 3 Zrotation Xrotation Yrotation
        JOINT LeftKnee
        {
            OFFSET 0.0 -42.84370803833008 0.0
            CHANNELS 3 Zrotation Xrotation Yrotation
            JOINT LeftAnkle
            {
                OFFSET 0.0 -40.930877685546875 0.0
                CHANNELS 3 Zrotation Xrotation Yrotation
                JOINT LeftFoot
                {
                    OFFSET 0.0 -12.58619499206543 0.0
                    CHANNELS 3 Zrotation Xrotation Yrotation
                    End Site
                    {
                        OFFSET 0.0 0.0 5.034478187561035
                    }
                }
            }
        }
    }
    JOINT RightHip
    {
        OFFSET -14.179494857788086 0.0 0.0
        CHANNELS 3 Zrotation Xrotation Yrotation
        JOINT RightKnee
        {
            OFFSET 0.0 -42.84370803833008 0.0
            CHANNELS 3 Zrotation Xrotation Yrotation
            JOINT RightAnkle
            {
                OFFSET 0.0 -40.930877685546875 0.0
                CHANNELS 3 Zrotation Xrotation Yrotation
                JOINT RightFoot
                {
                    OFFSET 0.0 -12.58619499206543 0.0
                    CHANNELS 3 Zrotation Xrotation Yrotation
                    End Site
                    {
                        OFFSET 0.0 0.0 5.034478187561035
                    }
                }
            }
        }
    }
}
MOTION
Frames: 8
Frame Time: 0.03333333333333333
54.29999923706055 0.5 -5.900000095367432 0.996332884712214 -3.9787837457075987 -22.4725390708479 1.8470542734778619 5.0611442344098 -0.07606312975419631 -7.237985611274612e-07 -2.984384240266897e-08 2.042506651977882 87.43459945655393 17.571754737170373 178.59934229574742 5.91521677549981e-06 -2.655278414207475e-07 34.507474581871755 -179.99999887678453 -59.46075597938263 -149.92603882808243 8.827812596100317e-32 -3.1805546814635168e-15 3.1805546814635168e-15 -98.83360433329737 -8.252919780756937 177.087175702093 -3.6590222794994554e-07 -9.259936822754506e-07 -32.203472950694625 -2.6996033695871956e-06 -42.031320126022216 -28.947334427297438 3.9756933518293915e-16 6.3611093629270335e-15 7.951386703658792e-15 -0.4977021887079 -8.734538185274479 -13.600486840722871 -4.402878701983349 16.537009320231494 -14.2965751966302 74.09294491354505 -41.13087320371605 123.89602845717555 0.0 0.0 -1.5902773407317588e-15 0.8120728000159197 4.203499844560819 27.060445277500158 8.995965340981847 14.347779085498066 9.902550517460922 -89.43835630829396 -26.99349249000185 -145.40988461204563 -2.7829853462805764e-15 -1.987846675914697e-16 -2.5842006786891068e-15
54.400001525878906 0.5 -6.0 0.9877641896151728 -4.435816153446614 -23.457785640348263 1.657187301674703 5.351136083718362 -0.08458536595954423 4.160842776396693e-07 2.8822763952844167e-08 2.7348043900535792 88.14277247833863 15.349512409198839 179.638225510678 3.309136967717903e-08 -8.590429474304674e-07 37.27513721746192 -179.99999867331027 -54.761914086305715 -149.9718462747602 4.4139062980501586e-32 -3.1805546814635168e-15 1.5902773407317584e-15 -100.54073365495863 -9.493536830448479 175.6019972825372 4.048802307148645e-06 1.2363181575570407e-06 -35.66415701064639 3.2614247341070497e-06 -39.92373273444226 -28.929269951831056 -3.1805546814635164e-15 2.2069531490250793e-32 -7.951386703658791e-16 -0.49222719833336015 -7.707391859701452 -14.48190356264501 -4.366931700942439 15.243547425274201 -13.243716333610779 75.08693252689109 -40.46626212956118 125.87032915498335 3.1805546814635164e-15 -8.827812596100317e-32 -3.1805546814635164e-15 0.5324952307238378 4.041369058503797 26.389150950300046 9.0241897015906 14.965151015769111 10.21066768000738 -89.4405794298331 -28.2574114378053 -143.89911254150414 2.1866313435061676e-15 5.310481014841597e-32 2.7829853462805764e-15
54.599998474121094 0.5 -6.099999904632568 0.9963329220591972 -4.474223174750578 -23.761032042444718 1.9112870524412495 5.136190732630284 -0.08069022228271243 -1.8100172028198615e-07 3.752715192400005e-08 2.3132951087529574 88.76332570274747 13.290584777434884 -179.24262861035226 -1.152451551055427e-06 4.029507356335268e-07 41.322900090529934 179.9999967953545 -53.28089234218976 -148.43448912335347 -6.361109362927035e-15 3.1805546814635176e-15 1.5902773407317592e-15 -103.06685684989742 -11.640576995130425 174.12039063242275 -6.7240098896831415e-06 4.979797696736808e-07 -39.96059117254568 1.4190542017537654e-06 -44.39650734583531 -29.986362570531508 4.770832022195275e-15 -7.951386703658792e-16 -1.5902773407317584e-15 -0.8296767507126303 -7.5463175791090285 -14.352716532611508 -3.9377303108212938 15.084525140259919 -12.977830956355879 73.65121710092609 -40.94152912659151 123.50599154475518 6.3611093629270335e-15 5.565970692561154e-15 -3.089734408635111e-31 0.34272916769910483 3.722780440539134 26.474409137010046 9.306840251583013 15.554489966206921 10.818668163763853 -89.69711517022483 -27.83237352516932 -144.99565459272515 8.150171371250262e-15 5.796700380486185e-31 8.150171371250262e-15
54.70000076293945 0.4000000059604645 -6.199999809265137 0.9877640695491458 -4.435820863208573 -24.621134436556698 2.004827187453938 4.808948423750241 -0.03211477955075284 3.517941299366137e-07 -5.073454916698754e-08 2.5208710786411097 90.0182355281108 10.71284934405256 -178.78968942379083 -2.131488037854667e-06 9.150752228005829e-07 45.697611586288 179.99999845662202 -50.88919853854219 -149.13507313790285 -6.3611093629270335e-15 -1.7655625192200634e-31 3.1805546814635168e-15 -105.16550270633851 -13.123079960889617 172.5686995249646 1.7431185851276558e-06 -4.645807660441539e-07 -44.63202009048538 4.823351676108783e-06 -48.71212002488498 -30.851444540128664 -8.827812596100317e-32 6.3611093629270335e-15 1.5902773407317584e-15 -0.742670767041108 -7.151550348065498 -15.322877660905233 -4.380759613564321 14.257537765716187 -11.801273539226745 74.27290071996312 -39.77587744745259 123.69291045950766 3.1805546814635176e-15 -7.951386703658792e-16 3.1805546814635176e-15 0.11234894344720525 3.164641374511016 26.989023863978947 9.824002418148435 16.14710435951655 11.2920413725655 -90.05873636633048 -27.299741638607635 -145.91532706583763 -7.951386703658794e-16 1.517280289954742e-32 -2.186631343506168e-15
54.79999923706055 0.4000000059604645 -6.199999809265137 0.9877643379398987 -5.416221503139631 -25.228445672072176 1.0643243402854208 5.888890632538374 0.04029756756890487 -1.546566933103999e-08 -5.927859745312059e-09 2.9454501569602716 91.84979513580494 7.569476647697943 -177.1594109583404 -4.024198013166728e-06 -2.7936774157657952e-06 49.840532113101865 -179.99999810447056 -53.079390727425434 -147.7933429015996 0.0 0.0 3.1805546814635168e-15 -106.87176152879667 -13.487765728818204 170.9471641938434 3.797605166084993e-06 -2.373954504152311e-06 -49.6798998565689 -3.722161533441482e-06 -45.46073530833872 -30.86378429348884 0.0 -6.3611093629270335e-15 0.0 -1.1973059088808844 -6.035327271582492 -15.418523682238465 -4.396867493921445 13.808702232951578 -11.20391001131389 72.82530553766222 -39.49263561079747 121.31630128521957 -1.7655625192200634e-31 6.3611093629270335e-15 3.1805546814635168e-15 -0.40343685290069303 3.874633750755282 26.889659388504683 9.738088855229659 16.496653038937705 11.617324732648534 -90.0125948587915 -28.003594003928384 -145.38727759090594 -1.3655522609592679e-31 -6.559894030518502e-15 -2.385416011097637e-15
54.900001525878906 0.4000000059604645 -6.300000190734863 0.98776424394039 -4.926379077023024 -25.629263110781977 1.5403607768231673 4.811745999029857 0.009094287928907914 1.4446234489328375e-08 7.006193123926523e-08 2.389446248998962 93.09830002421761 6.046481571490102 -177.30894206940948 -3.792153339373897e-07 -4.345866338439424e-06 55.08869218899249 179.99999779085226 -54.91093727578839 -149.14110116581128 6.3611093629270335e-15 4.4139062980501586e-32 7.951386703658792e-16 -109.3458238189304 -14.912955279481672 169.6336022066552 5.273960915729844e-06 -2.7227316138486525e-06 -54.57200171096545 -2.0506764105208705e-06 -43.18306551455849 -31.438627460383987 3.180554681463516e-15 -6.361109362927032e-15 1.7655625192200634e-31 -0.8857427340719185 -6.603239449478417 -15.979702348265366 -4.71210316667594 14.026495149412213 -11.529321517799975 75.20303149207302 -37.984325398401 125.70991789250242 3.1805546814635168e-15 7.951386703658791e-16 -3.1805546814635168e-15 -0.21197004458871244 3.4287074893087075 27.24926338540897 9.716645944765142 16.371773130185677 11.528905079774285 -89.91022741000042 -28.132918971787646 -145.18396209189424 9.34287937679908e-15 -6.1623246953355635e-15 7.951386703658797e-16
54.900001525878906 0.4000000059604645 -6.300000190734863 0.9877640042569538 -5.416221468495132 -26.726670659065615 1.641472586021488 4.880935366643801 -0.05003049155265199 4.50333248370706e-08 6.607814132841932e-08 2.2065937301704075 94.02745850576798 5.2739527274374565 -177.6691620517651 6.342365820367674e-07 -1.5841447690986945e-06 61.152628709337364 -179.99999973314107 -55.34112905017017 -140.65660215268045 0.0 0.0 -7.951386703658792e-16 -112.25284622039739 -16.668947378515597 168.6057516487984 2.6300304354581205e-06 -1.7267445154064472e-07 -60.43564522035645 3.4740399125820243e-06 -48.77048537617599 -30.546932530141724 0.0 -1.5902773407317584e-15 0.0 -1.0376929457670532 -6.358325350455147 -15.860463093850708 -4.932881692069391 14.717548886999056 -12.10270488945922 76.68286496289922 -37.065019815505245 128.08060620678356 0.0 0.0 3.1805546814635164e-15 -0.44466153020651 3.7433378804186184 27.07950427511309 9.355488549780503 16.437654908125637 11.60964182432901 -89.80322354040727 -29.023713559551233 -144.37629495181088 8.547740706433202e-15 -1.9878466759147036e-16 -7.752602036067322e-15
54.900001525878906 0.30000001192092896 -6.400000095367432 0.4939282093363899 -5.416823979725499 -27.304737512902193 1.8594991319964187 5.039328520965999 -0.06513079250866363 1.5072904486589695e-07 8.620987126920185e-08 2.047969689518665 95.89299603284402 3.1032620552068986 -177.3939758452876 2.4072267114728587e-06 1.334634003326182e-06 66.48525396468058 179.99999654070592 -56.93446102364056 -148.3604766530533 0.0 0.0 2.3854160110976376e-15 -113.40240640949382 -16.8877860162034 167.4515334446449 -1.5672737177425513e-06 -2.2987427335306636e-06 -65.71716125567467 -1.582413756071514e-05 -54.09796255945307 -32.03866377877366 3.1805546814635168e-15 -1.7655625192200634e-31 -6.3611093629270335e-15 -0.5378271098040478 -6.434993332792443 -15.834401507389332 -5.042764857746264 15.453848490704651 -12.699537970340963 75.96964191663567 -36.49333923931322 127.41251143310805 -3.180554681463516e-15 -8.827812596100317e-32 3.180554681463516e-15 0.025275557077805596 3.844348391373043 26.91422845371268 9.267590749736783 16.5079220033333 11.449131569053419 -89.76119972814338 -29.8424421588537 -143.141198383761 -1.6896696745274934e-15 -9.939233379573485e-17 -2.782985346280577e-15
